<?xml version="1.0" encoding="UTF-8"?>
<svg width="144px" height="39px" viewBox="0 0 144 39" version="1.1" xmlns="http://www.w3.org/2000/svg" xmlns:xlink="http://www.w3.org/1999/xlink">
    <!-- Generator: sketchtool 53.2 (72643) - https://sketchapp.com -->
    <title>8A8B851D-53B6-4E21-A537-1EE0FDC9F290</title>
    <desc>Created with sketchtool.</desc>
    <defs>
        <polygon id="path-1" points="0 0.504388889 94.4739863 0.504388889 94.4739863 34.8037407 0 34.8037407"/>
    </defs>
    <g id="CORE-GUIDELINES-/-EBANKING-/-3rd-PARTY-VENDORS---STYLE-GUIDE" stroke="none" stroke-width="1" fill="none" fill-rule="evenodd">
        <g id="messaging" transform="translate(-732.000000, -362.000000)">
            <g id="Group" transform="translate(0.000000, 299.000000)">
                <g id="Logo" transform="translate(732.000000, 63.000000)">
                    <g id="Group-3">
                        <mask id="mask-2" fill="white">
                            <use xlink:href="#path-1"/>
                        </mask>
                        <g id="Clip-2"/>
                        <path d="M65.5653562,29.0326296 C62.2618288,31.6485556 60.7815205,31.9168889 60.1392945,31.9168889 C59.5322055,31.9168889 59.1320342,31.6822593 59.1320342,31.0781852 C59.1320342,30.3062407 59.7033356,29.065037 61.0834384,27.2845741 L71.9004247,13.5593889 L79.2128219,13.5593889 C75.4381986,18.2915185 72.6734384,21.7837407 71.0896712,23.727537 C70.5834384,24.3329074 68.4960411,26.6811481 65.5653562,29.0326296 L65.5653562,29.0326296 Z M32.9855616,23.3924444 C32.9855616,23.8960556 33.2217603,24.2655 33.6251849,24.5001296 C32.9855616,25.3070741 32.2099452,26.1781852 31.2983356,27.0849444 C27.5595,30.8448519 25.0660753,31.7827222 23.6514863,31.7827222 C22.5713493,31.7827222 22.0670685,31.1442963 22.0670685,30.4404074 C22.0670685,28.1913333 24.494774,24.7354074 28.4678562,20.8426296 C32.1767603,17.217537 34.2667603,16.613463 35.1731644,16.613463 C36.1179589,16.613463 36.6892603,17.217537 36.6892603,18.0892963 C36.6892603,18.7620741 36.4550137,19.7349444 35.9487808,20.8426296 C34.8035753,21.0092037 32.9855616,22.117537 32.9855616,23.3924444 L32.9855616,23.3924444 Z M93.5304932,12.4841111 C89.0479247,18.0218889 84.9713836,22.4539259 81.602137,25.6091111 C76.8859726,30.0055 72.9779589,31.917537 71.2256644,31.917537 C70.619226,31.917537 70.2158014,31.6822593 70.2158014,31.0781852 C70.2158014,30.3062407 70.7877534,29.065037 72.1698082,27.2845741 L82.9822397,13.5593889 L88.2117945,13.5593889 L89.2873767,12.418 L83.8958014,12.418 C86.0163836,9.76707407 87.6001507,7.75457407 87.6001507,7.75457407 L83.8613151,7.75457407 C83.8613151,7.75457407 82.209226,9.83448148 80.154363,12.418 L72.8094315,12.418 C74.9326164,9.76707407 76.5163836,7.75457407 76.5163836,7.75457407 L72.7768973,7.75457407 C72.7768973,7.75457407 71.1248082,9.83448148 69.0705959,12.418 L64.2158356,12.418 L63.1402534,13.5593889 L68.1238493,13.5593889 C68.1238493,13.5593889 60.086589,23.6270741 59.9863836,23.7502222 C59.432,24.4301296 57.4109726,26.8198519 54.6149795,29.065037 C51.3134041,31.6822593 50.0016233,31.9168889 49.3574452,31.9168889 C48.7529589,31.9168889 48.3495342,31.6822593 48.3495342,31.0781852 C48.3495342,30.3062407 48.9214863,29.065037 50.301589,27.2845741 L59.4996712,15.7067037 L55.6593288,15.7067037 C55.6593288,15.7067037 53.2999452,18.6940185 49.729637,23.123463 C49.729637,23.123463 47.4730616,26.0096667 44.9783356,28.460963 C42.3847055,30.9790185 40.1613151,31.9168889 39.2848425,31.9168889 C38.3764863,31.9168889 38.0387808,30.5752222 40.4313493,27.5548519 L49.8330959,15.7067037 L46.3278562,15.7067037 C43.5305616,19.1321667 40.9017945,21.1427222 37.6002192,22.6879074 C36.656726,23.123463 36.5558699,22.8564259 36.5558699,22.7546667 C36.5558699,22.6879074 36.5558699,22.6192037 36.656726,22.4195741 C37.3640205,21.0442037 37.9711096,19.5340185 37.9711096,18.0892963 C37.9711096,16.377537 36.5884041,15.3716111 34.9063836,15.3716111 C30.6918973,15.3716111 25.4037808,19.4322593 22.2030616,23.2913333 C18.9346712,27.2528148 11.7589178,33.4277222 5.82922603,33.4277222 C3.3689863,33.4277222 2.25631507,31.9849444 2.25631507,29.7702222 C2.25631507,25.1722593 6.80590411,18.7944815 11.5220685,13.3915185 C16.9129932,7.18225926 22.8732671,1.91346296 27.8282329,1.91346296 C30.3567945,1.91346296 31.7368973,3.52475926 31.7368973,5.27022222 C31.7368973,7.38512963 30.1550822,9.06253704 28.8758356,9.06253704 C28.7066575,9.06253704 28.5387808,8.99448148 28.4678562,8.86031481 C28.4027877,8.65874074 28.5036438,8.59133333 28.5036438,8.25624074 C28.5036438,7.38512963 27.8282329,6.77975926 27.0207329,6.77975926 C26.076589,6.77975926 25.3029247,7.48494444 25.3029247,8.55827778 C25.3029247,9.76707407 26.4487808,10.6731852 27.8640205,10.6731852 C30.2533356,10.6731852 32.949774,8.15577778 32.949774,5.27022222 C32.949774,3.08855556 31.2983356,0.504388889 27.6623082,0.504388889 C23.011863,0.504388889 15.8003219,3.28883333 7.91662329,12.1840185 C2.3239863,18.4593889 -0.000260273973,24.0969815 -0.000260273973,28.1913333 C-0.000260273973,32.2532778 2.02141781,34.8037407 5.55919178,34.8037407 C9.56806164,34.8037407 14.8236438,32.5216111 19.7786096,27.8238333 C19.6400137,28.2924444 19.6100822,28.7163333 19.6100822,29.1311481 C19.6100822,31.4806852 21.2921027,33.0582778 23.6183014,33.0582778 C26.8190205,33.0582778 31.3660068,29.6678148 35.2089521,24.6686481 C37.6340548,23.9291111 39.5880616,23.0904074 41.9136096,21.4123519 L42.1257329,21.2736481 L39.8593973,23.9958704 C37.5325479,26.9507778 36.6892603,28.7299444 36.6892603,30.5402222 C36.6892603,31.9505926 37.7010753,33.0582778 39.0161096,33.0582778 C40.3630274,33.0582778 43.2963151,31.9849444 46.7664178,28.3605 C45.8873425,30.875963 46.4937808,33.0582778 49.1889178,33.0582778 C50.9080274,33.0582778 53.4034041,31.9168889 57.6133356,28.0578148 C56.6698425,30.5752222 57.1097055,33.0582778 59.9707671,33.0582778 C61.6905274,33.0582778 64.2854589,31.8520741 68.8682329,27.8581852 C67.9546712,30.2731852 68.2624452,33.0582778 71.1248082,33.0582778 C74.0210068,33.0582778 77.9986438,30.5402222 82.3777534,26.5469815 C85.4099452,23.7955926 88.7108699,20.3396667 91.7098767,16.513 C91.7098767,16.513 91.5426507,17.5195741 91.5081644,18.6940185 C91.4404932,21.4797593 91.0370685,23.6957778 90.296589,26.0096667 C89.4884384,28.460963 88.1389178,31.9168889 85.2101849,31.9168889 C84.5002877,31.9168889 83.8613151,31.515037 83.8613151,30.875963 C83.8613151,30.7755 83.8958014,30.5402222 84.0643288,30.4067037 C84.2309041,30.2718889 84.3668973,30.4067037 84.6694658,30.4067037 C85.4099452,30.4067037 86.151726,29.8026296 86.151726,28.7617037 C86.151726,28.1913333 85.7463493,27.0505926 84.3668973,27.0505926 C83.0525137,27.0505926 81.7713151,27.9904074 81.7713151,29.8026296 C81.7713151,31.5467963 83.3544315,33.0582778 85.4418288,33.0582778 C87.9027192,33.0582778 90.6492603,31.2881852 91.9460753,29.2653148 C92.9019315,27.7758704 93.7341575,26.4478148 93.7341575,23.0904074 C93.7341575,22.3515185 93.6658356,21.4797593 93.5649795,20.5392963 L93.1596027,17.5195741 C93.0912808,16.9822593 92.7568288,15.1026296 94.4739863,13.2567037 L93.5304932,12.4841111 Z" id="Fill-1" fill="#020203" mask="url(#mask-2)"/>
                    </g>
                    <polygon id="Fill-4" fill="#020203" points="105 39 106 39 106 1 105 1"/>
                    <polygon id="Fill-6" fill="#020203" points="126.999219 18 126 18.5461847 126.999219 19 128 18.5461847"/>
                    <polygon id="Fill-7" fill="#020203" points="130 19 132 19 132 18 130 18"/>
                    <polygon id="Fill-8" fill="#020203" points="126 5 126 7 127 6.00031817"/>
                    <polygon id="Fill-9" fill="#020203" points="122 20 134 20 134 19 122 19"/>
                    <polygon id="Fill-10" fill="#020203" points="123 19 125 19 125 18 123 18"/>
                    <path d="M121.587628,10.8041613 C121.836261,10.458961 122.178386,10.2292778 122.58758,10.1124096 C122.908026,10.0205364 123.33348,10.013781 123.33348,10.013781 C123.87275,10.013781 124.61865,10.196852 125.338806,10.4339661 C125.725644,10.5616429 126.527096,10.7859218 127.497918,10.7859218 L127.504693,10.7859218 C128.473482,10.7859218 129.276289,10.5731271 129.661772,10.4339661 C130.385993,10.1725326 131.127828,10.013781 131.664388,10.013781 C131.664388,10.013781 132.060711,10.0070256 132.413675,10.1063298 C132.821515,10.2198203 133.161607,10.458961 133.413628,10.8041613 C133.662261,11.1500372 133.825533,11.6465581 133.827565,12.2383301 C133.830275,12.9226508 133.648034,13.4184963 133.648034,13.4198473 L133.589094,13.5772479 C132.27005,12.5686685 130.666468,12.1079511 128.839318,11.9160981 C127.819718,11.8174694 126.863801,11.8458421 126.159228,11.9160981 C124.334788,12.1079511 122.731205,12.5686685 121.408774,13.5772479 L121.350511,13.4198473 C121.350511,13.4184963 121.170981,12.9226508 121.172335,12.2383301 C121.172335,11.6465581 121.338317,11.1500372 121.587628,10.8041613 L121.587628,10.8041613 Z M129.389428,17.250152 L128.006701,15.8707019 L129.389428,14.4905762 L129.389428,17.250152 Z M127.501305,15.3660744 L126.119257,13.9886509 L128.886064,13.9886509 L127.501305,15.3660744 Z M125.610473,17.2494765 L125.610473,14.4912518 L126.993199,15.8707019 L125.610473,17.2494765 Z M120.421016,14.5034115 L121.46365,18 C122.549642,17.7750456 122.825374,17.0920759 122.92293,16.7394447 C122.488669,16.0889009 121.621501,16.1071404 121.621501,16.1071404 C121.702121,15.8166588 122.001565,15.5086131 122.385015,15.4755117 C122.677007,15.4484902 122.787435,15.5390124 122.787435,15.5390124 C122.787435,15.5390124 122.72172,15.245153 122.72172,14.8573938 C122.72172,14.4709856 122.962224,14.0156725 123.27996,13.7819361 C123.628859,14.0845775 123.880202,14.4709856 123.880202,14.8573938 C123.880202,15.245153 123.775194,15.5390124 123.775194,15.5390124 C123.775194,15.5390124 123.907301,15.4430859 124.204713,15.4755117 C124.511609,15.5079376 124.806988,15.7187057 124.939095,16.1071404 C124.939095,16.1071404 124.063798,16.072688 123.636989,16.7401202 C123.903236,17.3832331 124.646426,17.73046 125.351,17.73046 C126.724919,17.73046 127.500628,16.3753293 127.500628,16.3753293 C127.500628,16.3753293 128.263464,17.73046 129.659062,17.73046 C130.376508,17.73046 131.090567,17.3832331 131.358847,16.7401202 C130.881227,16.072688 130.05674,16.1071404 130.05674,16.1071404 C130.18817,15.7187057 130.481517,15.5079376 130.788413,15.4755117 C131.086502,15.4430859 131.219964,15.5390124 131.219964,15.5390124 C131.219964,15.5390124 131.154249,15.245153 131.154249,14.8573938 C131.154249,14.4709856 131.385946,14.0548537 131.714521,13.7819361 C132.032257,14.0460717 132.271405,14.4709856 132.271405,14.8573938 C132.271405,15.245153 132.2084,15.5390124 132.2084,15.5390124 C132.2084,15.5390124 132.251759,15.4647031 132.552557,15.4755117 C132.905522,15.4863203 133.27881,15.7754509 133.372302,16.1071404 C133.372302,16.1071404 132.486165,16.074039 132.073583,16.7394447 C132.193496,17.110991 132.441452,17.7750456 133.528799,18 L134.608693,14.5034115 C134.70354,14.2237384 134.801096,13.8630007 134.864779,13.5583328 C134.961658,13.0928866 135.015178,12.5902858 134.996209,12.2788624 C134.996209,11.4932108 134.713702,10.7170168 134.320767,10.1759103 C133.927831,9.63075052 133.366882,9.24772006 132.727346,9.07072891 C132.390641,8.97547794 132.040386,8.93224346 131.688777,8.93224346 C130.908326,8.93224346 130.247111,9.06329798 129.266127,9.43957306 C129.11505,9.50847801 128.834576,9.59224482 128.493128,9.656421 C128.57849,9.49699385 128.625236,9.31865162 128.625236,9.12612308 C128.625236,8.50327636 128.12255,8 127.500628,8 C126.873964,8 126.363825,8.50327636 126.363825,9.12612308 C126.363825,9.31594947 126.413281,9.49294062 126.49661,9.65101669 C126.172777,9.58616497 125.911949,9.50712693 125.765615,9.43957306 C124.788019,9.06329798 124.121383,8.93224346 123.346352,8.93224346 C122.994065,8.93224346 122.643133,8.97547794 122.304396,9.07072891 C121.668247,9.24772006 121.103911,9.63075052 120.711653,10.1759103 C120.318717,10.7170168 120.003691,11.4932108 120.003691,12.2788624 C119.984722,12.5902858 120.040275,13.0928866 120.137831,13.5583328 C120.198804,13.8630007 120.330912,14.2237384 120.421016,14.5034115 L120.421016,14.5034115 Z" id="Fill-11" fill="#020203"/>
                    <polygon id="Fill-12" fill="#020203" points="128 4 126 4 127.001591 5"/>
                    <polygon id="Fill-13" fill="#020203" points="126 7 128 7 127.000955 6"/>
                    <polygon id="Fill-14" fill="#020203" points="129 5 128 6.00031817 129 7"/>
                    <polygon id="Fill-15" fill="#020203" points="136 20 138 20 137.000636 19"/>
                    <path d="M142.647807,26.4198473 L142.588865,26.5772479 C141.269801,25.567993 139.66687,25.1086266 137.839014,24.9154225 C136.819399,24.818145 135.863467,24.8458421 135.158882,24.9154225 C133.334413,25.1086266 131.731482,25.567993 130.409031,26.5772479 L130.350767,26.4198473 C130.350767,26.4184963 130.170556,25.9226508 130.172588,25.2383301 C130.172588,24.6465581 130.337895,24.1507127 130.587209,23.8041613 C130.836524,23.458961 131.177977,23.2292778 131.587855,23.1124096 C131.908306,23.0205364 132.333767,23.0131055 132.333767,23.0131055 C132.873045,23.0131055 133.618957,23.196852 134.339124,23.4339661 C134.725968,23.5616429 135.526756,23.7859218 136.497593,23.7865973 L136.505045,23.7865973 C137.473172,23.7859218 138.275993,23.5731271 138.661482,23.4339661 C139.386391,23.1718571 140.127561,23.0131055 140.664129,23.0131055 C140.664129,23.0131055 141.060458,23.0070256 141.414106,23.1063298 C141.821274,23.2204958 142.161372,23.458961 142.413397,23.8041613 C142.662034,24.1507127 142.825985,24.6465581 142.828018,25.2383301 C142.830728,25.9226508 142.647807,26.4184963 142.647807,26.4198473 L142.647807,26.4198473 Z M138.389133,30.250152 L137.007062,28.8707019 L138.389133,27.4905762 L138.389133,30.250152 Z M136.50098,28.3660744 L135.120265,26.9893265 L137.886438,26.9893265 L136.50098,28.3660744 Z M134.610796,30.2494765 L134.610796,27.4912518 L135.993544,28.8707019 L134.610796,30.2494765 Z M143.996003,25.2795379 C143.996003,24.4932108 143.713491,23.7170168 143.32055,23.1759103 C142.927608,22.6307505 142.36665,22.2470445 141.727781,22.0714044 C141.391071,21.9761535 141.040134,21.9315679 140.688519,21.9315679 C139.908055,21.9315679 139.246829,22.063298 138.26583,22.4395731 C138.115428,22.508478 137.834949,22.5922448 137.493497,22.656421 C137.57886,22.4969939 137.624929,22.3193272 137.624929,22.1261231 C137.624929,21.5032764 137.122235,21 136.500303,21 C135.873629,21 135.363482,21.5032764 135.363482,22.1261231 C135.363482,22.3159495 135.413616,22.4936162 135.496269,22.6510167 C135.172431,22.586165 134.911599,22.5071269 134.76594,22.4395731 C133.787651,22.063298 133.121005,21.9315679 132.345962,21.9315679 C131.994347,21.9315679 131.642732,21.9761535 131.303989,22.0714044 C130.66783,22.2470445 130.103485,22.6307505 129.71122,23.1759103 C129.318279,23.7170168 129.003926,24.4932108 129.003926,25.2795379 C128.984278,25.5902858 129.039832,26.0928866 129.138068,26.5583328 C129.198364,26.8630007 129.331151,27.2237384 129.421257,27.5034115 L130.463907,31 C131.549239,30.7750456 131.824975,30.0920759 131.922533,29.7394447 C131.488942,29.0889009 130.621083,29.1071404 130.621083,29.1071404 C130.701704,28.8166588 131.00183,28.5086131 131.38461,28.4748362 C131.677961,28.4484902 131.787714,28.5396879 131.787714,28.5396879 C131.787714,28.5396879 131.72132,28.245153 131.72132,27.8580693 C131.72132,27.4709856 131.963182,27.0156725 132.279568,26.7819361 C132.628473,27.0845775 132.87982,27.4709856 132.87982,27.8580693 C132.87982,28.245153 132.775487,28.5396879 132.775487,28.5396879 C132.775487,28.5396879 132.90692,28.4430859 133.205013,28.4748362 C133.511914,28.5079376 133.80662,28.7187057 133.939408,29.1071404 C133.939408,29.1071404 133.064096,29.0733635 132.637958,29.7394447 C132.902855,30.3832331 133.646056,30.73046 134.350641,30.73046 C135.724582,30.73046 136.500303,29.3753293 136.500303,29.3753293 C136.500303,29.3753293 137.263829,30.73046 138.658772,30.73046 C139.376229,30.73046 140.090976,30.3832331 140.359261,29.7394447 C139.880956,29.0733635 139.056456,29.1071404 139.056456,29.1071404 C139.188566,28.7187057 139.481239,28.5079376 139.78814,28.4748362 C140.086234,28.4430859 140.220376,28.5396879 140.220376,28.5396879 C140.220376,28.5396879 140.153982,28.245153 140.153982,27.8580693 C140.153982,27.4709856 140.385683,27.0541782 140.714941,26.7819361 C141.032004,27.0460717 141.271834,27.4709856 141.271834,27.8580693 C141.271834,28.245153 141.20815,28.5396879 141.20815,28.5396879 C141.20815,28.5396879 141.251509,28.4647031 141.552313,28.4748362 C141.905283,28.4863203 142.278577,28.7754509 142.37207,29.1071404 C142.37207,29.1071404 141.485919,29.0747146 141.074008,29.7394447 C141.193923,30.110991 141.441205,30.7750456 142.528569,31 L143.608481,27.5034115 C143.704007,27.2237384 143.800887,26.8630007 143.864571,26.5583328 C143.961451,26.0928866 144.01565,25.5902858 143.996003,25.2795379 L143.996003,25.2795379 Z" id="Fill-16" fill="#020203"/>
                    <polygon id="Fill-17" fill="#020203" points="138 17 136 17 137.001272 18"/>
                    <polygon id="Fill-18" fill="#020203" points="138 18 137 19.0003182 138 20"/>
                    <polygon id="Fill-19" fill="#020203" points="135 18 135 20 136 19.0003182"/>
                    <polygon id="Fill-20" fill="#020203" points="131 33 143 33 143 32 131 32"/>
                    <polygon id="Fill-21" fill="#020203" points="136.998959 31 136 31.5459242 136.998959 32 138 31.5459242"/>
                    <polygon id="Fill-22" fill="#020203" points="132 32 134 32 134 31 132 31"/>
                    <polygon id="Fill-23" fill="#020203" points="139 32 141 32 141 31 139 31"/>
                    <polygon id="Fill-24" fill="#020203" points="122 32 124 32 124 31 122 31"/>
                    <polygon id="Fill-25" fill="#020203" points="113 33 125 33 125 32 113 32"/>
                    <polygon id="Fill-26" fill="#020203" points="118.998698 31 118 31.5459242 118.998698 32 120 31.5459242"/>
                    <polygon id="Fill-27" fill="#020203" points="114 32 116 32 116 31 114 31"/>
                    <polygon id="Fill-28" fill="#020203" points="118 20 120 20 119.001272 19"/>
                    <path d="M125.647583,26.4198473 L125.58932,26.5772479 C124.269596,25.567993 122.666688,25.1086266 120.838858,24.9154225 C119.819256,24.818145 118.863337,24.8458421 118.158762,24.9154225 C116.334319,25.1086266 114.731411,25.567993 113.409655,26.5772479 L113.350715,26.4198473 C113.350715,26.4184963 113.170506,25.9226508 113.172538,25.2383301 C113.172538,24.6465581 113.33852,24.1507127 113.587154,23.8041613 C113.836465,23.458961 114.177913,23.2292778 114.587786,23.1124096 C114.908232,23.0205364 115.333687,23.0131055 115.333687,23.0131055 C115.872958,23.0131055 116.618859,23.196852 117.339016,23.4339661 C117.726533,23.5616429 118.526632,23.7859218 119.497455,23.7865973 L119.505585,23.7865973 C120.473698,23.7859218 121.27583,23.5731271 121.661314,23.4339661 C122.386213,23.1718571 123.127372,23.0131055 123.663933,23.0131055 C123.663933,23.0131055 124.060934,23.0070256 124.413899,23.1063298 C124.821739,23.2204958 125.161155,23.458961 125.413176,23.8041613 C125.66181,24.1507127 125.825759,24.6465581 125.827791,25.2383301 C125.830501,25.9226508 125.647583,26.4184963 125.647583,26.4198473 L125.647583,26.4198473 Z M121.389646,30.250152 L120.006917,28.8707019 L121.389646,27.4905762 L121.389646,30.250152 Z M119.500842,28.3660744 L118.120146,26.9893265 L120.886281,26.9893265 L119.500842,28.3660744 Z M117.610684,30.2494765 L117.610684,27.4912518 L118.993413,28.8707019 L117.610684,30.2494765 Z M126.320317,23.1759103 C125.928058,22.6307505 125.36643,22.2470445 124.72757,22.0714044 C124.391542,21.9761535 124.039932,21.9315679 123.688322,21.9315679 C122.90787,21.9315679 122.246653,22.063298 121.265668,22.4395731 C121.115268,22.508478 120.834793,22.5922448 120.493345,22.656421 C120.578707,22.4969939 120.624775,22.3193272 120.624775,22.1261231 C120.624775,21.5032764 120.122088,21 119.500165,21 C118.8735,21 118.36336,21.5032764 118.36336,22.1261231 C118.36336,22.3159495 118.413493,22.4936162 118.496145,22.6510167 C118.172312,22.586165 117.911484,22.5071269 117.765826,22.4395731 C116.787551,22.063298 116.120914,21.9315679 115.345882,21.9315679 C114.994272,21.9315679 114.643339,21.9761535 114.303923,22.0714044 C113.667773,22.2470445 113.104113,22.6307505 112.711177,23.1759103 C112.318241,23.7170168 112.003892,24.4932108 112.003892,25.2795379 C111.984245,25.5902858 112.040476,26.0928866 112.13871,26.5583328 C112.198328,26.8630007 112.331113,27.2237384 112.421217,27.5034115 L113.463853,31 C114.54917,30.7750456 114.824903,30.0920759 114.923137,29.7394447 C114.488874,29.0889009 113.621028,29.1071404 113.621028,29.1071404 C113.701647,28.8166588 114.001769,28.5086131 114.385221,28.4748362 C114.67789,28.4484902 114.787641,28.5396879 114.787641,28.5396879 C114.787641,28.5396879 114.721926,28.245153 114.721926,27.8580693 C114.721926,27.4709856 114.963108,27.0156725 115.279489,26.7819361 C115.629067,27.0845775 115.88041,27.4709856 115.88041,27.8580693 C115.88041,28.245153 115.775402,28.5396879 115.775402,28.5396879 C115.775402,28.5396879 115.906832,28.4430859 116.204921,28.4748362 C116.512495,28.5079376 116.807198,28.7187057 116.939305,29.1071404 C116.939305,29.1071404 116.064006,29.0733635 115.637874,29.7394447 C115.902767,30.3832331 116.645958,30.73046 117.350533,30.73046 C118.724455,30.73046 119.500165,29.3753293 119.500165,29.3753293 C119.500165,29.3753293 120.26368,30.73046 121.658604,30.73046 C122.376051,30.73046 123.090788,30.3832331 123.359069,29.7394447 C122.880771,29.0733635 122.056282,29.1071404 122.056282,29.1071404 C122.18839,28.7187057 122.48106,28.5079376 122.787956,28.4748362 C123.086723,28.4430859 123.220186,28.5396879 123.220186,28.5396879 C123.220186,28.5396879 123.153793,28.245153 123.153793,27.8580693 C123.153793,27.4709856 123.38549,27.0541782 123.714744,26.7819361 C124.03248,27.0460717 124.271629,27.4709856 124.271629,27.8580693 C124.271629,28.245153 124.207946,28.5396879 124.207946,28.5396879 C124.207946,28.5396879 124.251305,28.4647031 124.552781,28.4748362 C124.905746,28.4863203 125.279036,28.7754509 125.37185,29.1071404 C125.37185,29.1071404 124.485711,29.0747146 124.073806,29.7394447 C124.193719,30.110991 124.440998,30.7750456 125.529024,31 L126.608244,27.5034115 C126.703768,27.2237384 126.801325,26.8630007 126.86433,26.5583328 C126.961886,26.0928866 127.016084,25.5902858 126.99576,25.2795379 C126.99576,24.4932108 126.713253,23.7170168 126.320317,23.1759103 L126.320317,23.1759103 Z" id="Fill-29" fill="#020203"/>
                    <polygon id="Fill-30" fill="#020203" points="117 18 117 20 118 19.0009545"/>
                    <polygon id="Fill-31" fill="#020203" points="120 18 119 19.0009545 120 20"/>
                    <polygon id="Fill-32" fill="#020203" points="120 17 118 17 119.001908 18"/>
                </g>
            </g>
        </g>
    </g>
</svg>